<svg xmlns="http://www.w3.org/2000/svg" viewBox="0 0 1024 1024"><defs><style>.cls-1{fill:#fff;}</style></defs><g id="Layer_2" data-name="Layer 2"><g id="Layer_1-2" data-name="Layer 1"><rect width="1024" height="1024"/><path class="cls-1" d="M465.12,607.3c0-103.55-41.76-144.47-97.71-144.47C309.79,462.83,253,507.92,253,606.47v4.17C253,714.2,295.59,761,360.73,761,415.85,761,465.12,718.37,465.12,607.3ZM246.46,715l-44.11,71H186V323.35c0-51.78-5.72-56.79-58-60.13V239.84l125-8.35V502.9c21.24-46.77,63.73-78.5,120.92-78.5,87.41,0,156,71,156,179.55,0,111.9-74.35,187.9-168.3,187.9C305.29,792.68,267.71,765.12,246.46,715ZM766,645.72V597.28c-107.73,7.52-149.48,35.91-149.48,89.36,0,43.42,20.87,66.81,61,66.81C723.41,752.61,766,710,766,645.72Zm75-96.36V716.45c0,25.64,9.1,33.08,22.33,33.08,11.58,0,23.16-8.27,28.13-11.58l4.13,24c-9.1,9.1-26.47,19-54.59,19-43,0-66.17-23.17-66.17-64.52-20.68,45.49-57.9,68.65-110,68.65-70.3,0-112.49-37.22-112.49-96,0-66.17,62-112.49,221.68-119.11V525.37c0-48.8-22.33-75.27-67-75.27-46.32,0-57.9,23.16-72,56.25-7.45,17.37-15.72,28.95-35.57,28.95-20.68,0-32.26-11.58-32.26-30.61,0-43,59.56-83.54,138.14-83.54,91,0,135.65,48,135.65,128.21Z"/></g></g></svg>