<svg height="176" preserveAspectRatio="xMaxYMid meet" xmlns="http://www.w3.org/2000/svg">
    <g fill="#fff">
        <path d="M95.5 99.7c0-12.4-5-17.3-11.7-17.3-6.9 0-13.7 5.4-13.7 17.2v.5c0 12.4 5.1 18 12.9 18 6.6 0 12.5-5.1 12.5-18.4zM69.7 113l-5.4 8.5h-2V66.1c0-6.2-.7-6.8-7.1-7.2v-2.8l15.3-1v32.5c2.6-5.6 7.8-9.4 14.8-9.4 10.7 0 19.1 8.5 19.1 21.5 0 13.4-9.1 22.5-20.6 22.5-6.9.1-11.5-3.2-14.1-9.2zm73.2-12.8c0-10.4-4-18.4-12.7-18.4s-12.6 8-12.6 18.4c0 10.5 3.9 18.5 12.6 18.5 8.8 0 12.7-8 12.7-18.5zm-34.2 0c0-12.4 9-22 21.5-22s21.6 9.5 21.6 22-9.1 22.1-21.6 22.1c-12.5 0-21.5-9.6-21.5-22.1zm94.2 20.9h-22.3v-2.7c6.5-.6 6.9-1.2 6.9-7.3V92.3c0-6.4-2.3-9.7-8.1-9.7-7.1 0-11.7 6-11.7 13v15.5c0 6.2.6 6.7 7 7.3v2.7h-22.3v-2.7c6.5-.6 7-1.2 7-7.3V89.7c0-6.2-.6-6.7-7-7.1v-2.8l14.8-1.2v8.7c2.5-5.6 7.3-9.1 14.2-9.1 8.9 0 14.3 5.1 14.3 14.7V111c0 6.2.7 6.7 7 7.3v2.8zm39.5-15.8v-5.8c-12.9.9-17.9 4.3-17.9 10.7 0 5.2 2.5 8 7.3 8 5.5-.1 10.6-5.2 10.6-12.9zm8.1-11.6v20.2c0 3.1 1.1 4 2.7 4 1.4 0 2.8-1 3.4-1.4l.5 2.9c-1.1 1.1-3.2 2.3-6.6 2.3-5.2 0-8-2.8-8-7.8-2.5 5.5-7 8.3-13.3 8.3-8.5 0-13.6-4.5-13.6-11.6 0-8 7.5-13.6 26.8-14.4v-5.4c0-5.9-2.7-9.1-8.1-9.1-5.6 0-7 2.8-8.7 6.8-.9 2.1-1.9 3.5-4.3 3.5-2.5 0-3.9-1.4-3.9-3.7 0-5.2 7.2-10.1 16.7-10.1 11 0 16.4 5.8 16.4 15.5z" />
        <path d="M269.6 100.3c0 12.5 5 17.8 12.9 17.8 6.6 0 12.4-5.1 12.4-18.4 0-12.4-5-17.3-11.7-17.3-6.9 0-13.7 5.4-13.7 17.3v.6zm8.8 41.5h-23.8V139c6.5-.4 7-1.2 7-7.3v-42c0-6.2-.6-6.7-7-7.1v-2.8l15-1.2v9.6c2.5-6 7.8-10 15.1-10 10.7 0 19.1 8.5 19.1 21.5 0 13.4-8.9 22.5-20.4 22.5-6.7 0-11.1-2.9-13.5-8.1v17.5c0 6.2.9 6.7 8.5 7.3v2.9zm41.2-41.5c0 12.5 5 17.8 12.9 17.8 6.6 0 12.4-5.1 12.4-18.4 0-12.4-5-17.3-11.7-17.3-6.9 0-13.7 5.4-13.7 17.3v.6zm8.7 41.5h-23.8V139c6.5-.4 7-1.2 7-7.3v-42c0-6.2-.6-6.7-7-7.1v-2.8l15-1.2v9.6c2.5-6 7.8-10 15.1-10 10.7 0 19.1 8.5 19.1 21.5 0 13.4-8.9 22.5-20.4 22.5-6.7 0-11.1-2.9-13.5-8.1v17.5c0 6.2.9 6.7 8.5 7.3v2.9zm46-67.3l5.5-7.2c3.1-4 4.7-5.9 7.2-5.9 2.1 0 3.7 1.7 3.7 3.6 0 2.1-1.2 3.4-6.9 6.6l-8.3 4.5-1.2-1.6zm-16.2 25.7c0-12 9.1-22 20.4-22 10.5 0 17.6 8 17.6 17.6v2.9H367v1.4c0 11.6 4.8 17.9 13.5 17.9 6.4 0 10.3-3.8 12.8-7.2l3.1 2.2c-3 4.7-8.3 9.2-16.9 9.2-13.3.1-21.4-8.6-21.4-22zm9.2-4.7h20.2c-.2-9.1-3.2-13.6-9-13.6-5.7-.1-10.1 4.8-11.2 13.6zm48.3 22.5c3 0 4.7-4.3 5.1-4.9l2.6 1.8c-.6 1.2-3.1 7.3-9.5 7.3-6.1 0-9.4-3.5-9.4-10.8V82.7h-6.9v-3c7.2-.8 10.8-3.3 12.1-15.7h3.1v15.4h9v3.3h-9v29.7c0 4.2.8 5.6 2.9 5.6zm15-51.3c0-2.9 2.4-5.3 5.3-5.3 3 0 5.3 2.4 5.3 5.3s-2.3 5.3-5.3 5.3c-2.9 0-5.3-2.4-5.3-5.3zm-4.6 51.7c5.4-.6 5.9-1.2 5.9-7.3V89.8c0-6.1-1.2-6.6-6.4-7.3v-2.7l14.6-1.2V111c0 6.2.5 6.7 6.6 7.3v2.7H426v-2.6zm39.1-.4c3 0 4.7-4.3 5.1-4.9l2.6 1.8c-.6 1.2-3.1 7.3-9.6 7.3-6.1 0-9.4-3.5-9.4-10.8V82.7H446v-3c8.3-1 11.7-3.3 13-15.7h3.1v15.4h10.4v3.3h-10.4v29.7c0 4.2.9 5.6 3 5.6z" />
    </g>
</svg>